<svg width="36" height="36" viewBox="0 0 36 36" fill="none" xmlns="http://www.w3.org/2000/svg">
<symbol id="email">
<path d="M32.8303 8.60843C32.764 8.51957 32.6809 8.44465 32.5857 8.38793C32.4904 8.33122 32.3849 8.29382 32.2752 8.27789C32.1655 8.26196 32.0538 8.2678 31.9463 8.29508C31.8389 8.32235 31.7379 8.37054 31.6491 8.43687L18.0394 18.5956C17.9907 18.6321 17.9315 18.6519 17.8706 18.6519C17.8098 18.6519 17.7506 18.6321 17.7019 18.5956L4.35938 8.39187C4.27129 8.32465 4.17082 8.27544 4.06372 8.24704C3.95661 8.21865 3.84496 8.21163 3.73514 8.22639C3.62532 8.24114 3.51948 8.27738 3.42367 8.33304C3.32785 8.3887 3.24394 8.46269 3.17672 8.55078C3.1095 8.63886 3.06029 8.73933 3.0319 8.84644C3.0035 8.95354 2.99648 9.0652 3.01124 9.17502C3.02599 9.28484 3.06224 9.39067 3.11789 9.48649C3.17355 9.5823 3.24754 9.66621 3.33563 9.73343L13.8263 17.7575L3.45094 25.5762C3.36156 25.6429 3.28618 25.7265 3.22912 25.8223C3.17205 25.9181 3.13442 26.0242 3.11835 26.1346C3.10229 26.2449 3.10812 26.3573 3.13551 26.4654C3.1629 26.5735 3.2113 26.6751 3.27797 26.7645C3.34464 26.8539 3.42826 26.9293 3.52405 26.9863C3.61985 27.0434 3.72595 27.0811 3.83629 27.0971C3.94663 27.1132 4.05906 27.1073 4.16715 27.08C4.27523 27.0526 4.37687 27.0042 4.46625 26.9375L15.2184 18.8206L16.6753 19.9456C17.015 20.2056 17.4302 20.3479 17.858 20.351C18.2857 20.354 18.7029 20.2177 19.0463 19.9625L20.5763 18.8206L31.455 26.9375C31.5438 27.0038 31.6448 27.0519 31.7523 27.0792C31.8597 27.1065 31.9715 27.1123 32.0812 27.0964C32.1908 27.0804 32.2963 27.043 32.3916 26.9864C32.4868 26.9297 32.57 26.8548 32.6363 26.7659C32.7026 26.6771 32.7507 26.5761 32.778 26.4687C32.8052 26.3612 32.811 26.2495 32.7951 26.1398C32.7792 26.0301 32.7418 25.9246 32.6851 25.8294C32.6284 25.7341 32.5535 25.651 32.4647 25.5847L21.9853 17.7547L32.6588 9.78125C32.8358 9.64756 32.953 9.44954 32.9852 9.23004C33.0173 9.01054 32.9616 8.78722 32.8303 8.60843Z" fill="white"/>
<path d="M31.7812 5H4.21875C3.09987 5 2.02681 5.44447 1.23564 6.23564C0.444474 7.02681 0 8.09987 0 9.21875L0 26.0938C0 27.2126 0.444474 28.2857 1.23564 29.0769C2.02681 29.868 3.09987 30.3125 4.21875 30.3125H31.7812C32.9001 30.3125 33.9732 29.868 34.7644 29.0769C35.5555 28.2857 36 27.2126 36 26.0938V9.21875C36 8.09987 35.5555 7.02681 34.7644 6.23564C33.9732 5.44447 32.9001 5 31.7812 5ZM34.3125 26.0938C34.3125 26.7651 34.0458 27.4089 33.5711 27.8836C33.0964 28.3583 32.4526 28.625 31.7812 28.625H4.21875C3.54742 28.625 2.90359 28.3583 2.42889 27.8836C1.95418 27.4089 1.6875 26.7651 1.6875 26.0938V9.21875C1.6875 8.54742 1.95418 7.90359 2.42889 7.42889C2.90359 6.95418 3.54742 6.6875 4.21875 6.6875H31.7812C32.4526 6.6875 33.0964 6.95418 33.5711 7.42889C34.0458 7.90359 34.3125 8.54742 34.3125 9.21875V26.0938Z" fill="white"/>
</symbol>
</svg>
