<svg width="36" height="36" viewBox="0 0 36 36" fill="none" xmlns="http://www.w3.org/2000/svg">
<symbol id="inst">
<path d="M17.9048 10.6032C13.4603 10.6032 9.77777 14.2222 9.77777 18.7302C9.77777 23.2381 13.3968 26.8571 17.9048 26.8571C22.4127 26.8571 26.0317 23.1746 26.0317 18.7302C26.0317 14.2857 22.3492 10.6032 17.9048 10.6032ZM17.9048 23.9365C15.0476 23.9365 12.6984 21.5873 12.6984 18.7302C12.6984 15.873 15.0476 13.5238 17.9048 13.5238C20.7619 13.5238 23.1111 15.873 23.1111 18.7302C23.1111 21.5873 20.7619 23.9365 17.9048 23.9365Z" fill="white"/>
<path d="M26.3492 12.254C27.3661 12.254 28.1905 11.4296 28.1905 10.4127C28.1905 9.39581 27.3661 8.57144 26.3492 8.57144C25.3323 8.57144 24.5079 9.39581 24.5079 10.4127C24.5079 11.4296 25.3323 12.254 26.3492 12.254Z" fill="white"/>
<path d="M31.1111 5.65078C29.4603 3.9365 27.1111 3.04761 24.4445 3.04761H11.3651C5.84128 3.04761 2.15874 6.73015 2.15874 12.254V25.2698C2.15874 28 3.04763 30.3492 4.8254 32.0635C6.53969 33.7143 8.8254 34.5397 11.4286 34.5397H24.381C27.1111 34.5397 29.3968 33.6508 31.0476 32.0635C32.7619 30.4127 33.6508 28.0635 33.6508 25.3333V12.254C33.6508 9.58729 32.7619 7.30157 31.1111 5.65078ZM30.8571 25.3333C30.8571 27.3016 30.1587 28.8889 29.0159 29.9682C27.873 31.0476 26.2857 31.619 24.381 31.619H11.4286C9.52382 31.619 7.93651 31.0476 6.79366 29.9682C5.6508 28.8254 5.07937 27.2381 5.07937 25.2698V12.254C5.07937 10.3492 5.6508 8.76189 6.79366 7.61904C7.87302 6.53967 9.52382 5.96824 11.4286 5.96824H24.5079C26.4127 5.96824 28 6.53967 29.1429 7.68253C30.2222 8.82538 30.8571 10.4127 30.8571 12.254V25.3333Z" fill="white"/>
</symbol>
</svg>
