<svg width="44" height="36" viewBox="0 0 44 36" fill="none" xmlns="http://www.w3.org/2000/svg">
<path d="M19.8431 18.1176C14.5389 18.1803 9.23444 18.2309 3.93029 18.3166C2.87305 18.3339 1.81434 18.455 0.761527 18.6072C0.587287 18.635 0.42281 18.7392 0.289607 18.9063C0.156404 19.0735 0.0606763 19.2957 0.0149466 19.544C-0.0714125 19.9414 0.229225 20.505 0.58822 20.588C0.936604 20.6685 1.28292 20.793 1.63308 20.8237C3.8681 21.0227 6.10253 21.3038 8.33991 21.363C12.9355 21.4841 17.5332 21.5144 22.13 21.5226C26.4915 21.53 30.8528 21.45 35.2144 21.4348C35.9144 21.4327 36.6153 21.562 37.3144 21.6537C37.3607 21.6706 37.4034 21.7042 37.4385 21.7515C37.4737 21.7988 37.5002 21.8582 37.5157 21.9244C37.5281 22.0827 37.4963 22.35 37.4244 22.4066C36.0842 23.4762 34.7605 24.6006 33.3814 25.5551C30.1755 27.7738 27.168 30.4954 24.1625 33.2262C23.6685 33.6751 23.1509 34.1309 22.9517 35.0214C22.9157 35.1836 22.8591 35.4613 22.9051 35.5153C23.0699 35.7409 23.2702 35.903 23.4881 35.9872C23.7203 36.0275 23.9556 35.9724 24.1678 35.828C24.92 35.3318 25.6626 34.805 26.3949 34.2481C31.6177 30.2481 36.8308 26.2233 42.0568 22.2336C44.028 20.729 44.9644 19.2698 42.5985 15.9625C41.9168 15.0089 41.2271 14.0566 40.4858 13.2089C37.0479 9.27274 33.5973 5.36041 30.1342 1.47202C29.6579 0.970759 29.1557 0.524669 28.6322 0.137796C28.2909 -0.134239 27.949 0.0275115 27.6543 0.353175C27.3298 0.712141 27.1282 1.75617 27.2402 2.21547C27.4889 3.23441 27.9838 3.98218 28.5158 4.65903C30.5633 7.26577 32.6219 9.85368 34.6915 12.4226C36.0364 14.1011 37.3958 15.7554 38.7383 17.4373C38.8046 17.5208 38.8079 17.7781 38.7811 17.933C38.7635 18.0001 38.735 18.06 38.6981 18.1075C38.6613 18.155 38.6171 18.1886 38.5694 18.2054C37.8677 18.2729 37.1644 18.3585 36.462 18.3533C30.9218 18.3101 25.3815 18.2569 19.8416 18.1925L19.8431 18.1176Z" fill="#610000"/>
</svg>
