<svg width="33" height="27" viewBox="0 0 33 27" fill="none" xmlns="http://www.w3.org/2000/svg">
<path d="M18.3451 13.4119C22.2026 13.3649 26.0604 13.3269 29.918 13.2627C30.6869 13.2497 31.4568 13.1589 32.2225 13.0447C32.3493 13.0239 32.4689 12.9457 32.5657 12.8204C32.6626 12.695 32.7322 12.5283 32.7655 12.3421C32.8283 12.044 32.6097 11.6214 32.3486 11.5591C32.0952 11.4988 31.8433 11.4054 31.5887 11.3823C29.9632 11.2331 28.3382 11.0223 26.711 10.9779C23.3687 10.887 20.025 10.8643 16.6819 10.8582C13.5098 10.8526 10.338 10.9127 7.1659 10.924C6.6568 10.9256 6.14706 10.8286 5.63861 10.7599C5.60495 10.7472 5.57392 10.722 5.54835 10.6865C5.52278 10.651 5.50347 10.6065 5.4922 10.5568C5.4832 10.4381 5.50635 10.2376 5.55865 10.1952C6.53333 9.393 7.49601 8.54965 8.49899 7.83377C10.8306 6.16977 13.0179 4.12854 15.2036 2.08049C15.5629 1.7438 15.9393 1.40191 16.0842 0.734044C16.1104 0.612407 16.1515 0.404164 16.1181 0.363618C15.9982 0.194484 15.8526 0.0729014 15.6941 0.00973361C15.5252 -0.0204758 15.3541 0.0208482 15.1998 0.129102C14.6527 0.501279 14.1126 0.896402 13.5801 1.31401C9.7817 4.31407 5.99037 7.33262 2.1896 10.3249C0.75598 11.4534 0.0749677 12.5478 1.79561 15.0282C2.29142 15.7434 2.79302 16.4577 3.33212 17.0935C5.83244 20.0456 8.34195 22.9798 10.8606 25.8961C11.207 26.2721 11.5722 26.6066 11.9529 26.8968C12.2011 27.1008 12.4498 26.9795 12.6642 26.7352C12.9002 26.466 13.0468 25.683 12.9653 25.3385C12.7844 24.5743 12.4245 24.0135 12.0376 23.5059C10.5485 21.5508 9.05132 19.6099 7.54617 17.6832C6.56806 16.4243 5.57944 15.1836 4.60305 13.9221C4.55482 13.8595 4.55246 13.6665 4.57197 13.5504C4.58476 13.5 4.60545 13.4551 4.63226 13.4195C4.65907 13.3839 4.6912 13.3587 4.72587 13.3461C5.23626 13.2954 5.74771 13.2312 6.25853 13.2351C10.2878 13.2676 14.3171 13.3075 18.3461 13.3558L18.3451 13.4119Z" fill="#610000"/>
</svg>
