<svg width="36" height="36" viewBox="0 0 36 36" fill="none" xmlns="http://www.w3.org/2000/svg">
<symbol id="tt">    
<path fill-rule="evenodd" clip-rule="evenodd" d="M18.5625 3.9375C18.4133 3.9375 18.2702 3.99676 18.1648 4.10225C18.0593 4.20774 18 4.35082 18 4.5V23.625C18 25.1775 16.74 26.4375 15.1875 26.4375C13.635 26.4375 12.375 25.1775 12.375 23.625C12.375 22.0725 13.635 20.8125 15.1875 20.8125C15.3367 20.8125 15.4798 20.7532 15.5852 20.6477C15.6907 20.5423 15.75 20.3992 15.75 20.25V15.75C15.75 15.6008 15.6907 15.4577 15.5852 15.3523C15.4798 15.2468 15.3367 15.1875 15.1875 15.1875C10.53 15.1875 6.75 18.9681 6.75 23.625C6.75 28.2825 10.53 32.0625 15.1875 32.0625C19.8444 32.0625 23.625 28.2825 23.625 23.625V14.3404C24.8621 14.9003 26.2046 15.1891 27.5625 15.1875H28.6875C28.8367 15.1875 28.9798 15.1282 29.0852 15.0227C29.1907 14.9173 29.25 14.7742 29.25 14.625V10.125C29.25 9.97582 29.1907 9.83274 29.0852 9.72725C28.9798 9.62176 28.8367 9.5625 28.6875 9.5625H27.5625C25.3896 9.5625 23.625 7.79794 23.625 5.625V4.5C23.625 4.35082 23.5657 4.20774 23.4602 4.10225C23.3548 3.99676 23.2117 3.9375 23.0625 3.9375H18.5625ZM19.125 5.0625H22.5V5.625C22.5 8.41894 24.7686 10.6875 27.5625 10.6875H28.125V14.0625H27.5625C26.0263 14.0625 24.5857 13.6519 23.3443 12.9324C23.2588 12.8829 23.1617 12.8568 23.0629 12.8568C22.9641 12.8567 22.867 12.8826 22.7814 12.932C22.6958 12.9814 22.6247 13.0525 22.5753 13.1381C22.5259 13.2237 22.4999 13.3207 22.5 13.4196V23.625C22.5 27.6609 19.2234 30.9375 15.1875 30.9375C11.1516 30.9375 7.875 27.6609 7.875 23.625C7.875 19.7786 10.8517 16.6219 14.625 16.3339V19.7274C12.7181 20.0008 11.25 21.6427 11.25 23.6256C11.25 25.7979 13.0146 27.5631 15.1875 27.5631C17.3604 27.5631 19.125 25.7979 19.125 23.6256V5.0625Z" fill="white"/>
</symbol>
</svg>
